<?xml version="1.0" encoding="utf-8"?>
<!-- Generator: Adobe Illustrator 25.1.0, SVG Export Plug-In . SVG Version: 6.00 Build 0)  -->
<svg version="1.1" id="Layer_1" xmlns="http://www.w3.org/2000/svg" xmlns:xlink="http://www.w3.org/1999/xlink" x="0px" y="0px"
	 viewBox="0 0 24 24" style="enable-background:new 0 0 24 24;" xml:space="preserve">
<style type="text/css">
	.st0{fill:#FFFFFF;}
</style>
<path class="st0" d="M12,6.4c3.1,0,5.6,2.5,5.6,5.6s-2.5,5.6-5.6,5.6S6.4,15.1,6.4,12S8.9,6.4,12,6.4 M12,7.9
	c-2.3,0-4.1,1.9-4.1,4.1s1.9,4.1,4.1,4.1s4.1-1.9,4.1-4.1S14.3,7.9,12,7.9 M12,2l2.4,3.4C13.6,5.2,12.8,5,12,5s-1.6,0.2-2.4,0.4
	L12,2 M3.3,7l4.2-0.3C6.9,7.2,6.4,7.8,5.9,8.5C5.5,9.2,5.2,10,5.1,10.8L3.3,7 M3.4,17l1.8-3.8c0.1,0.8,0.4,1.6,0.8,2.3
	c0.4,0.7,1,1.4,1.6,1.9L3.4,17 M20.6,7l-1.8,3.8C18.7,10,18.5,9.2,18,8.5c-0.4-0.7-0.9-1.3-1.5-1.9L20.6,7 M20.6,17l-4.1,0.4
	c0.6-0.5,1.1-1.1,1.5-1.9c0.4-0.7,0.7-1.5,0.8-2.3L20.6,17 M12,22l-2.4-3.4c0.7,0.3,1.6,0.4,2.4,0.4c0.8,0,1.6-0.2,2.4-0.4L12,22z"
	/>
</svg>
